<?xml version="1.0" encoding="UTF-8"?>
<svg width="22px" height="22px" viewBox="0 0 22 22" version="1.1" xmlns="http://www.w3.org/2000/svg" xmlns:xlink="http://www.w3.org/1999/xlink">
    <!-- Generator: Sketch 52.2 (67145) - http://www.bohemiancoding.com/sketch -->
    <title>网格数据接入</title>
    <desc>Created with Sketch.</desc>
    <g id="页面-1" stroke="none" stroke-width="1" fill="none" fill-rule="evenodd">
        <g id="北斗平台白-无底" transform="translate(-66.000000, -145.000000)">
            <g id="分组-3-copy" transform="translate(30.000000, 81.000000)">
                <g id="分组-4" transform="translate(26.000000, 50.000000)">
                    <g id="分组-11">
                        <g id="网格数据接入">
                            <g transform="translate(11.000000, 15.000000)">
                                <path d="M18.7198709,14.8989118 C19.5350055,13.4511161 20,11.7798607 20,10 C20,4.4771525 15.5228475,0 10,0 C4.4771525,0 0,4.4771525 0,10 C0,15.5228475 4.4771525,20 10,20 C12.9615142,20 15.6223471,18.7126299 17.4534068,16.6669813" id="路径" stroke="#666666"></path>
                                <path d="M10.2903467,7.20278448 C10.3510755,7.32766378 10.4690629,7.40669107 10.5987003,7.40992768 C10.7285856,7.41316429 10.8497954,7.33953136 10.9152338,7.21788868 C10.9811679,7.09624599 10.9814158,6.94547379 10.9157295,6.82356139 L10.6482749,6.30381538 L13.1359251,6.30381538 C13.2045859,6.30381538 13.2601094,6.36450186 13.2601094,6.43894395 L13.2601094,8.34584811 C13.2601094,8.56108284 13.420483,8.73559019 13.6185333,8.73559019 C13.8163357,8.73559019 13.9764614,8.56108284 13.9764614,8.34584811 L13.9764614,6.43894395 C13.9764614,6.19377056 13.8859879,5.95884644 13.7251185,5.78676654 C13.564497,5.61495636 13.3471127,5.52055517 13.1217964,5.52460093 L10.0228921,5.52460093 C9.90193022,5.52783755 9.79038752,5.59742471 9.72693211,5.70962728 C9.66322883,5.82182984 9.65604052,5.96127389 9.70784591,6.08048912 L10.2903467,7.20278448 Z M7.75981448,13.1727161 C7.64901539,13.0081883 7.44080233,12.9644941 7.28166807,13.0721114 C7.12278168,13.1797288 7.06676245,13.4022459 7.15327002,13.5829568 L7.39692887,14.008841 L6.31298161,14.008841 C6.28051029,14.008841 6.24927833,13.9948157 6.22672192,13.9691925 C6.20441338,13.9435693 6.19226762,13.9093152 6.19375485,13.8737124 L6.19375485,10.4914524 C6.19375485,10.2764874 6.03338123,10.1019801 5.83557882,10.1019801 C5.63777642,10.1019801 5.47740279,10.2764874 5.47740279,10.4914524 L5.47740279,13.8737124 C5.47740279,14.3761965 5.85144267,14.7829308 6.31298161,14.7829308 L8.04139785,14.7829308 C8.1725225,14.7840097 8.2932365,14.7074099 8.35693978,14.58307 C8.42064306,14.4584604 8.41692497,14.3060699 8.34702487,14.1857758 L7.75981448,13.1727161 Z M14.1100648,12.382713 C14.3078672,12.382713 14.4682408,12.2084753 14.4682408,11.9932406 L14.4682408,10.7565849 C14.4630355,9.97170643 13.8768166,9.33813954 13.1552592,9.33813954 L10.2903467,9.33813954 C9.56878934,9.33813954 8.98257043,9.97170643 8.97736511,10.7565849 L8.97736511,13.8737124 C8.97463851,14.2548236 9.11195998,14.6208305 9.3585933,14.8910876 C9.60497875,15.161075 9.94059836,15.3129261 10.2903467,15.3129261 L13.1552592,15.3129261 C13.792292,15.3134655 14.3378598,14.8163758 14.4491546,14.1337203 C14.4833611,13.9214525 14.3532279,13.7188945 14.1581521,13.6816734 C13.9625806,13.6444524 13.776676,13.7863239 13.7424696,13.9985917 C13.6837238,14.3006756 13.4390734,14.5175286 13.1552592,14.518068 L10.2903467,14.518068 C9.96265903,14.518068 9.6961959,14.230549 9.6934693,13.8737124 L9.6934693,10.7565849 C9.69867462,10.4019062 9.96464201,10.1176237 10.2903467,10.1176237 L13.1552592,10.1176237 C13.4812118,10.1176237 13.7466834,10.4019062 13.7521366,10.7565849 L13.7521366,11.9827216 C13.74941,12.0879115 13.7860952,12.1895951 13.8535166,12.2651161 C13.9206901,12.3403673 14.0136423,12.382713 14.1100648,12.382713 Z M8.52846768,8.18482664 C8.52846768,8.54355119 8.26126092,8.83430687 7.93159025,8.83430687 L6.31298161,8.83430687 C6.15459097,8.83430687 6.00289288,8.76579857 5.89085443,8.64415589 C5.77906385,8.52224349 5.71610419,8.35690654 5.71610419,8.18482664 L5.71610419,6.42869467 C5.71610419,6.25661478 5.77906385,6.09127783 5.89085443,5.96936543 C6.00289288,5.84772274 6.15459097,5.77921445 6.31298161,5.77921445 L7.93159025,5.77921445 C8.26126092,5.77921445 8.52846768,6.06997013 8.52846768,6.42869467 L8.52846768,8.18482664 Z M9.24457186,6.42869467 C9.24457186,5.63977039 8.65686573,5 7.93159025,5 L6.31298161,5 C5.58770614,5 5,5.63977039 5,6.42869467 L5,8.18482664 C5,8.97375092 5.58770614,9.61352132 6.31298161,9.61352132 L7.93159025,9.61352132 C8.65686573,9.61352132 9.24457186,8.97375092 9.24457186,8.18482664 L9.24457186,6.42869467 Z" id="Fill-1-Copy" fill="#666666"></path>
                            </g>
                        </g>
                    </g>
                </g>
            </g>
        </g>
    </g>
</svg>