<?xml version="1.0" encoding="UTF-8"?>
<svg width="60px" height="61px" viewBox="0 0 60 61" version="1.1" xmlns="http://www.w3.org/2000/svg" xmlns:xlink="http://www.w3.org/1999/xlink">
    <!-- Generator: Sketch 52.2 (67145) - http://www.bohemiancoding.com/sketch -->
    <title>Fill 1</title>
    <desc>Created with Sketch.</desc>
    <g id="页面-1" stroke="none" stroke-width="1" fill="none" fill-rule="evenodd">
        <g id="北斗平台白-无底" transform="translate(-997.000000, -98.000000)" fill="#4065E0">
            <g id="分组-9" transform="translate(976.000000, 81.000000)">
                <path d="M50.9267012,27.7288783 C47.1548368,27.7288783 43.6677181,29.7798769 41.7822944,33.1087337 C39.8958537,36.4386268 39.8958537,40.540624 41.7822944,43.8694807 C43.6677181,47.1993739 47.1548368,49.2503724 50.9267012,49.2503724 C56.7578876,49.2503724 61.4856842,44.4322358 61.4856842,38.4896254 C61.4856842,32.5459786 56.7578876,27.7288783 50.9267012,27.7288783 Z M59.0976073,53 L42.8239615,53 C36.4354265,53 30.8086454,57.2866723 29,63.5310877 C34.0710753,70.7480113 42.2464022,75.029381 50.9566218,75.029381 C59.6658008,75.029381 67.8421683,70.7480113 72.912203,63.5310877 C71.1056389,57.2887934 65.4830204,53.0031816 59.0976073,53 Z M67.5141588,72.8456656 L67.2873792,72.99905 C64.0717859,75.138141 60.4819554,76.6274209 56.7141588,77.386052 L56.1853453,77.4855446 L55.8680571,77.5415092 L55.7277181,77.5643096 L55.3341588,77.6285653 L54.8856842,77.6907481 L54.7575486,77.7083666 L54.8592436,77.6948937 C53.9063622,77.8254777 52.9361927,77.9042427 51.9528029,77.9384433 L50.9267012,77.9560618 C49.3829724,77.9560618 47.8656842,77.8389507 46.3819554,77.6078376 L46.1256842,77.5643096 L45.9548368,77.5384001 C45.7270402,77.4979812 45.4982266,77.456526 45.27043,77.4109252 L45.1433114,77.386052 L45.0833114,77.3767246 C45.0192436,77.3632516 44.9572097,77.3477059 44.8941588,77.3331966 L44.4670402,77.2409587 L44.1639893,77.1725575 C43.6473792,77.0513009 43.1338198,76.9155349 42.6253453,76.766296 L42.21043,76.6398575 C42.0050063,76.578711 41.7985656,76.5123826 41.5941588,76.4450178 L41.1975486,76.3051063 C40.6870402,76.1278851 40.1826334,75.9361546 39.6833114,75.7299147 L39.3589046,75.5951851 C37.970769,75.002375 36.6283961,74.3028177 35.3450063,73.5037677 L35.071447,73.3296556 L34.5670402,72.99905 L34.3392436,72.8456656 L34.1948368,72.7492821 C30.4961927,70.2018568 27.4005995,66.848127 25.1317859,62.9306056 L25.0890741,62.8518407 C24.6121249,62.023772 24.1748368,61.1739393 23.7772097,60.303379 L23.7467012,60.2329051 C23.1670402,58.9540106 22.6758537,57.6346972 22.2761927,56.2863651 L22.3056842,56.3993307 C18.5592436,43.8922811 23.0551758,30.3415956 33.4819554,22.7169384 C43.9087351,15.0943539 57.9446673,15.0943539 68.371447,22.7169384 C78.7982266,30.3415956 83.2941588,43.8922811 79.5477181,56.3993307 L79.5772097,56.2863651 C79.1775486,57.6346972 78.6863622,58.9540106 78.1067012,60.2329051 L78.0761927,60.303379 C77.6795825,61.1739393 77.2412775,62.023772 76.7643283,62.8518407 L76.7216164,62.9306056 C74.4548368,66.8501997 71.3592436,70.2039296 67.6585656,72.7492821 L67.5172097,72.8456656 L67.5141588,72.8456656 Z" id="Fill-1"></path>
            </g>
        </g>
    </g>
</svg>